<svg width="33" height="27" viewBox="0 0 33 27" fill="none" xmlns="http://www.w3.org/2000/svg">
<path d="M31.3593 20.9175C29.5593 24.5175 26.4593 26.3175 22.4593 26.4175C17.9593 26.5175 13.4593 26.5175 8.95933 26.4175C5.65933 26.3175 3.05933 24.9175 1.45933 21.9175C1.05933 21.2175 0.859326 20.3175 0.559326 19.5175V16.8175C1.25933 14.6175 2.35933 12.6175 4.45933 11.3175C4.95933 11.0175 4.75933 10.6175 4.75933 10.2175C4.85933 9.01748 5.05933 7.91748 5.55933 6.81748C6.35933 4.91748 7.65933 3.71748 8.25933 3.21748C10.4593 1.41748 12.7593 1.01748 13.7593 0.91748C14.2593 0.91748 14.7593 0.91748 15.2593 0.91748C15.5593 0.91748 15.9593 1.01748 16.4593 1.21748C17.9593 1.61748 19.8593 2.21748 21.3593 3.71748C22.1593 4.51748 22.8593 5.41748 23.3593 6.51748C23.6593 7.21748 24.1593 7.51748 24.8593 7.71748C26.9593 8.21748 28.7593 9.31748 30.0593 11.0175C32.5593 14.0175 33.0593 17.4175 31.3593 20.9175Z" fill="white"/>
</svg>
