<svg width="33" height="33" viewBox="0 0 33 33" fill="none" xmlns="http://www.w3.org/2000/svg">
<path d="M16.5708 0.79892C7.71632 0.79892 0.559326 7.95591 0.559326 16.8104C0.559326 25.6419 7.71632 32.8219 16.5708 32.8219C25.4023 32.8219 32.5823 25.6649 32.5823 16.8104C32.5593 7.95591 25.4023 0.79892 16.5708 0.79892ZM25.8841 18.072C25.5629 18.3932 25.1041 18.5996 24.6224 18.5996H18.3371V24.8849C18.3371 25.8713 17.5342 26.6742 16.5479 26.6742C15.5615 26.6742 14.7586 25.8713 14.7586 24.8849V18.5767H8.49624C7.50986 18.5767 6.707 17.7738 6.707 16.7874C6.707 15.8011 7.50986 14.9982 8.49624 14.9982H14.7815V8.73584C14.7815 7.74946 15.5844 6.94659 16.5708 6.94659C17.0525 6.94659 17.5113 7.15304 17.8324 7.47419C18.1536 7.79534 18.36 8.25412 18.36 8.73584V15.0211H24.6453C25.6317 15.0211 26.4346 15.824 26.4346 16.8104C26.4117 17.2921 26.2052 17.728 25.8841 18.072Z" fill="#2A457A"/>
</svg>
