<svg width="1920" height="500" viewBox="0 0 1920 500" fill="none" xmlns="http://www.w3.org/2000/svg">
<g clip-path="url(#clip0_636_1531)">
<path d="M-23.9002 344.4C-13.3001 298.7 26.9998 261.3 73.3998 254.1C119.8 246.9 169.5 270.3 193.5 310.6C207.5 227 280.4 154.2 365.1 149.3C449.8 144.4 534.1 215.6 535.2 300.3C561.3 276.5 590.3 254.5 624.2 244.7C658.1 234.9 698 239.6 723.5 263.9C796 192.8 922.6 186.9 1001.4 250.9C981.5 226.1 996.3 186.5 1023 169.2C1049.7 151.9 1083.3 150.9 1115.1 150.4C1149.8 149.8 1192.9 154.6 1205.4 187C1247.3 132.3 1332.7 117.1 1390.9 154C1403.7 162.1 1416.1 172.7 1431.3 174.1C1447 175.5 1461.6 166.7 1476.1 160.4C1547.9 129.4 1641.7 169.3 1669.1 242.5C1696.2 228.9 1724 215.1 1754.1 211.8C1784.2 208.5 1817.6 218 1834.9 242.8C1861.2 217.4 1906.5 221.6 1935.8 243.6C1965.1 265.6 1981.4 300.6 1993.1 335.3C2013.9 397.1 2023.5 463.9 2010.7 527.7C1997.9 591.6 1960.8 652.2 1904.2 684.5C1867.7 705.3 1825.4 713.6 1783.7 718.1C1683.5 728.8 1582.4 719.3 1481.6 717.6C1323.3 714.9 1165.1 731.3 1006.8 730C801.7 728.3 598.2 696.7 395.5 665.2C301.1 650.5 205.6 635.6 117.5 598.7C48.6998 570.1 -18.7002 523 -40.8002 452.1C-53.3002 412 -49.4002 367 -30.2002 329.5" fill="white" fill-opacity="0.5"/>
<path d="M1921.2 356.4V742.4H-19.2998V404C-8.9998 387.4 9.90019 374.9 29.7002 373.7C64.2002 371.6 96.2002 395.6 113.5 425.5C107.6 390.2 120.1 354.8 146.6 333.3C181.2 305.1 232.9 306.2 267 334C294.4 356.3 306.9 392.9 300.3 429C328.6 406.3 378.4 424.5 385.5 460C422.5 437.3 472.4 437.9 508.9 461.5C508 450 505.2 396 544.3 350.5C592.8 294 664.3 298.7 675 299.6C767 307.1 810 393.5 812 397.7C799.5 374 808 344.6 830.3 331.6C851.2 319.5 879 324.9 894.3 344.9C920.3 310 963.2 291.6 1006.4 296.7C1049.7 301.9 1087 329.9 1104 370C1106.4 346.8 1115.2 295 1154.9 249C1214.5 180 1299.6 175.4 1328.3 173.8C1416.2 169 1479.9 208.4 1506.2 225.2C1553.4 255.3 1583 291.2 1599.5 314.6C1598.8 322.1 1602.1 321.2 1599.5 314.6C1600.9 308.8 1603.8 300.3 1610.2 292.1C1626.5 271.1 1657.3 262.3 1683.8 269.9C1715.1 278.9 1728 307.2 1729.9 311.6C1732.2 309.6 1783 265.2 1846.3 285.3C1899.2 302 1918.7 350 1921.2 356.4Z" fill="white"/>
</g>
<defs>
<clipPath id="clip0_636_1531">
<rect width="2064.3" height="742.3" fill="white" transform="translate(-48)"/>
</clipPath>
</defs>
</svg>
