<svg width="18" height="14" viewBox="0 0 18 14" fill="none" xmlns="http://www.w3.org/2000/svg">
<path fill-rule="evenodd" clip-rule="evenodd" d="M3.24234 3.9001C3.62102 5.06114 4.71252 5.9001 5.99998 5.9001C7.28743 5.9001 8.37893 5.06114 8.75761 3.9001C11.5051 3.9001 14.2525 3.9001 17 3.9001C17.497 3.9001 17.9 3.49715 17.9 3.0001C17.9 2.50304 17.497 2.1001 17 2.1001C14.2525 2.1001 11.5051 2.1001 8.75761 2.1001C8.74789 2.06973 8.7609 2.11019 8.75761 2.1001C8.37893 0.939057 7.28743 0.100098 5.99998 0.100098C4.71252 0.100098 3.62102 0.939057 3.24234 2.1001C2.49489 2.1001 1.74743 2.1001 0.999976 2.1001C0.502919 2.1001 0.0999756 2.50304 0.0999756 3.0001C0.0999756 3.49715 0.502919 3.9001 0.999976 3.9001C1.74743 3.9001 2.49489 3.9001 3.24234 3.9001ZM5.99998 1.9001C5.39246 1.9001 4.89998 2.39258 4.89998 3.0001C4.89998 3.60761 5.39246 4.1001 5.99998 4.1001C6.60749 4.1001 7.09998 3.60761 7.09998 3.0001C7.09998 2.39258 6.60749 1.9001 5.99998 1.9001Z" fill="black" fill-opacity="0.9"/>
<path fill-rule="evenodd" clip-rule="evenodd" d="M0.0999756 11.0001C0.0999756 10.503 0.502919 10.1001 0.999976 10.1001C3.74743 10.1001 6.49489 10.1001 9.24234 10.1001C9.62102 8.93906 10.7125 8.1001 12 8.1001C13.2874 8.1001 14.3789 8.93906 14.7576 10.1001C14.7576 10.1001 16.4786 10.1001 17 10.1001C17.497 10.1001 17.9 10.503 17.9 11.0001C17.9 11.4972 17.497 11.9001 17 11.9001C16.7777 11.9001 14.7576 11.9001 14.7576 11.9001C14.3789 13.0611 13.2874 13.9001 12 13.9001C10.7125 13.9001 9.62102 13.0611 9.24234 11.9001C6.49489 11.9001 3.74743 11.9001 0.999976 11.9001C0.502919 11.9001 0.0999756 11.4972 0.0999756 11.0001ZM10.9 11.0001C10.9 10.3926 11.3925 9.9001 12 9.9001C12.6075 9.9001 13.1 10.3926 13.1 11.0001C13.1 11.6076 12.6075 12.1001 12 12.1001C11.3925 12.1001 10.9 11.6076 10.9 11.0001Z" fill="black" fill-opacity="0.9"/>
</svg>
