<svg width="33" height="33" viewBox="0 0 33 33" fill="none" xmlns="http://www.w3.org/2000/svg">
<g clip-path="url(#clip0_144_244)">
<path d="M32.5593 16.8088C32.5593 21.0084 30.9426 24.8334 28.2808 27.6923C25.3628 30.847 21.1829 32.7989 16.5495 32.7989C11.9161 32.7989 7.73616 30.8273 4.81811 27.6923C2.17609 24.8334 0.559326 21.0084 0.559326 16.8088C0.559326 7.95604 7.71644 0.79892 16.5692 0.79892C25.4219 0.79892 32.5593 7.95604 32.5593 16.8088Z" fill="#2A457A"/>
<path d="M28.3006 27.6923C25.3825 30.847 21.2026 32.7989 16.5692 32.7989C11.9358 32.7989 7.75588 30.8272 4.83783 27.6923C7.49957 24.1236 11.7583 21.8168 16.5692 21.8168C21.38 21.8168 25.6191 24.1236 28.3006 27.6923Z" fill="white"/>
<path d="M16.5593 18.7989C19.3207 18.7989 21.5593 16.5603 21.5593 13.7989C21.5593 11.0375 19.3207 8.79892 16.5593 8.79892C13.7979 8.79892 11.5593 11.0375 11.5593 13.7989C11.5593 16.5603 13.7979 18.7989 16.5593 18.7989Z" fill="white"/>
</g>
<defs>
<clipPath id="clip0_144_244">
<rect width="32" height="32" fill="white" transform="translate(0.559326 0.79892)"/>
</clipPath>
</defs>
</svg>
