<svg width="25" height="25" viewBox="0 0 25 25" fill="none" xmlns="http://www.w3.org/2000/svg">
<path d="M12.5593 5.39893C17.759 5.39893 22.9593 9.63619 22.9593 12.7989C22.9593 15.9617 17.759 20.1989 12.5593 20.1989C7.35961 20.1989 2.15933 15.9617 2.15933 12.7989C2.15933 9.63619 7.35961 5.39893 12.5593 5.39893ZM12.5593 7.19893C8.28178 7.19893 3.95933 10.7209 3.95933 12.7989C3.95933 14.8769 8.28178 18.3989 12.5593 18.3989C16.8369 18.3989 21.1593 14.8769 21.1593 12.7989C21.1593 10.7209 16.8369 7.19893 12.5593 7.19893ZM12.5593 9.39893C14.4371 9.39893 15.9593 10.9212 15.9593 12.7989C15.9593 14.6767 14.4371 16.1989 12.5593 16.1989C10.6816 16.1989 9.15933 14.6767 9.15933 12.7989C9.15933 10.9212 10.6816 9.39893 12.5593 9.39893ZM12.5593 11.1989C11.6757 11.1989 10.9593 11.9153 10.9593 12.7989C10.9593 13.6826 11.6757 14.3989 12.5593 14.3989C13.443 14.3989 14.1593 13.6826 14.1593 12.7989C14.1593 11.9153 13.443 11.1989 12.5593 11.1989Z" fill="#2A457A"/>
</svg>
