<svg width="25" height="25" viewBox="0 0 25 25" fill="none" xmlns="http://www.w3.org/2000/svg">
<path fill-rule="evenodd" clip-rule="evenodd" d="M12.1524 7.2094C11.656 7.23481 11.233 6.853 11.2076 6.3566C11.1821 5.86019 11.5639 5.43717 12.0603 5.41175C14.8189 5.2705 17.6342 6.36496 19.7092 7.91287C20.6842 8.64021 21.4967 9.46637 22.0655 10.3084C22.6345 11.1507 22.9593 12.0085 22.9593 12.7989C22.9593 13.7393 22.4953 14.7799 21.7171 15.765C21.409 16.155 20.8431 16.2214 20.453 15.9133C20.063 15.6052 19.9966 15.0392 20.3047 14.6492C20.7146 14.1303 21.1593 13.4814 21.1593 12.7989C21.1593 12.4865 21.0208 11.9775 20.5739 11.3159C20.1379 10.6704 19.4769 9.98526 18.6329 9.35566C16.7979 7.98677 14.4644 7.091 12.1524 7.2094Z" fill="#2A457A"/>
<path fill-rule="evenodd" clip-rule="evenodd" d="M5.40941 17.6849C7.35954 19.1396 9.95954 20.1989 12.5593 20.1989C14.5265 20.1989 16.4891 19.5921 18.1635 18.6759L19.4229 19.9353C19.7744 20.2868 20.3442 20.2868 20.6957 19.9353C21.0472 19.5838 21.0472 19.014 20.6957 18.6625L7.1957 5.16253C6.84423 4.81106 6.27438 4.81106 5.92291 5.16253C5.57143 5.514 5.57143 6.08385 5.92291 6.43532L6.60683 7.11925C6.18816 7.36493 5.78746 7.63086 5.40941 7.91287C4.43438 8.64021 3.62186 9.46637 3.05309 10.3084C2.48413 11.1507 2.1593 12.0085 2.1593 12.7989C2.1593 13.5893 2.48413 14.4471 3.05309 15.2894C3.62186 16.1314 4.43438 16.9576 5.40941 17.6849ZM10.9593 12.7989C10.9593 13.6826 11.6756 14.3989 12.5593 14.3989C12.9316 14.3989 13.2739 14.2724 13.5461 14.0585L11.2996 11.812C11.0859 12.0843 10.9593 12.4269 10.9593 12.7989ZM12.5593 16.1989C10.6815 16.1989 9.1593 14.6767 9.1593 12.7989C9.1593 11.929 9.48639 11.1357 10.0227 10.5351L7.92909 8.44151C7.41616 8.715 6.93128 9.02326 6.48568 9.35566C5.64167 9.98526 4.9807 10.6704 4.54467 11.3159C4.0978 11.9775 3.9593 12.4865 3.9593 12.7989C3.9593 13.1113 4.0978 13.6203 4.54467 14.2819C4.9807 14.9273 5.64167 15.6125 6.48568 16.2421C8.19012 17.5136 10.4216 18.3989 12.5593 18.3989C13.9985 18.3989 15.4843 17.9978 16.8284 17.3408L14.8232 15.3356C14.2226 15.8717 13.4289 16.1989 12.5593 16.1989Z" fill="#2A457A"/>
</svg>
