<svg width="237" height="35" viewBox="0 0 237 35" fill="none" xmlns="http://www.w3.org/2000/svg">
<path d="M95.184 13.104C95.184 13.136 95.184 13.168 95.184 13.2V31.856C95.184 33.04 94.224 34 93.04 34C91.856 34 90.896 33.04 90.896 31.856V19.568L85.392 26.8C85.36 26.832 85.328 26.864 85.296 26.928C85.264 26.928 85.264 26.928 85.264 26.928C84.528 27.792 83.536 27.824 82.768 27.44C82.736 27.44 82.736 27.408 82.704 27.408C82.672 27.408 82.672 27.376 82.64 27.376C82.576 27.344 82.48 27.28 82.416 27.216C82.384 27.216 82.384 27.216 82.384 27.216C82.352 27.184 82.352 27.184 82.352 27.184C82.256 27.12 82.16 27.024 82.064 26.928C82.064 26.896 82.032 26.896 82.032 26.864C82 26.832 81.968 26.8 81.936 26.768L76.784 19.728V31.856C76.784 33.04 75.824 34 74.64 34C73.456 34 72.496 33.04 72.496 31.856V13.2C72.496 13.168 72.496 13.136 72.496 13.136C72.496 13.072 72.496 13.04 72.496 13.008C72.496 12.976 72.496 12.944 72.496 12.912C72.496 12.88 72.496 12.88 72.496 12.848C72.528 12.72 72.56 12.624 72.592 12.496L72.624 12.464C72.656 12.336 72.72 12.24 72.784 12.112V12.08C72.848 11.984 72.944 11.888 73.008 11.792C73.04 11.76 73.04 11.76 73.072 11.728C73.104 11.696 73.136 11.664 73.168 11.632C73.232 11.568 73.296 11.536 73.328 11.472C73.36 11.472 73.36 11.472 73.36 11.472C73.424 11.408 73.52 11.376 73.584 11.312H73.616C73.68 11.28 73.744 11.248 73.776 11.216C73.808 11.216 73.808 11.216 73.808 11.216C73.904 11.184 74 11.152 74.096 11.12C74.128 11.12 74.128 11.12 74.16 11.12C74.192 11.088 74.224 11.088 74.256 11.088C74.288 11.088 74.32 11.088 74.352 11.056C74.416 11.056 74.448 11.056 74.512 11.056C74.512 11.056 74.544 11.056 74.576 11.056C74.576 11.056 74.608 11.056 74.64 11.056C74.736 11.056 74.832 11.056 74.928 11.088H74.96C75.088 11.088 75.216 11.12 75.312 11.184C75.344 11.184 75.344 11.184 75.376 11.184C75.472 11.216 75.6 11.28 75.696 11.344C75.728 11.344 75.728 11.376 75.76 11.376C75.856 11.44 75.952 11.504 76.048 11.6C76.048 11.6 76.08 11.6 76.08 11.632C76.176 11.696 76.272 11.792 76.336 11.92C76.336 11.92 76.336 11.92 76.368 11.92L83.696 21.904L91.344 11.888C91.376 11.856 91.376 11.856 91.376 11.824H91.408C91.472 11.728 91.536 11.664 91.6 11.6C91.632 11.6 91.632 11.568 91.632 11.568C91.728 11.472 91.856 11.408 91.952 11.344C91.952 11.344 91.984 11.344 91.984 11.312C92.112 11.28 92.208 11.216 92.336 11.184L92.368 11.152C92.496 11.12 92.592 11.088 92.72 11.088C92.752 11.088 92.752 11.056 92.784 11.056C92.848 11.056 92.944 11.056 93.04 11.056C93.072 11.056 93.104 11.056 93.136 11.056C93.136 11.056 93.168 11.056 93.2 11.056C93.232 11.056 93.264 11.056 93.328 11.056C93.36 11.088 93.392 11.088 93.424 11.088C93.456 11.088 93.488 11.088 93.552 11.12H93.584C93.648 11.152 93.712 11.152 93.776 11.184C93.808 11.184 93.84 11.216 93.904 11.216C93.936 11.248 93.968 11.28 94.032 11.28C94.064 11.312 94.096 11.312 94.128 11.344C94.16 11.376 94.192 11.376 94.224 11.408C94.256 11.44 94.288 11.472 94.32 11.472C94.32 11.472 94.32 11.472 94.352 11.504C94.384 11.536 94.416 11.536 94.416 11.568C94.448 11.568 94.448 11.568 94.448 11.6C94.512 11.664 94.576 11.696 94.64 11.76C94.64 11.792 94.672 11.792 94.672 11.792C94.736 11.888 94.832 12.016 94.896 12.112V12.144C94.96 12.24 95.024 12.368 95.056 12.496C95.056 12.496 95.056 12.496 95.088 12.528C95.12 12.624 95.152 12.752 95.152 12.88C95.152 12.912 95.152 12.912 95.152 12.944C95.184 12.976 95.184 13.008 95.184 13.072V13.104ZM117.655 11.12C118.839 11.12 119.799 12.08 119.799 13.264V25.328C119.799 30.288 115.223 34.448 109.815 34.448C104.407 34.448 99.8628 30.288 99.8628 25.328V13.264C99.8628 12.08 100.823 11.12 102.007 11.12C103.191 11.12 104.151 12.08 104.151 13.264V25.328C104.151 27.92 106.775 30.16 109.815 30.16C112.695 30.16 115.511 27.984 115.511 25.328V13.264C115.511 12.08 116.471 11.12 117.655 11.12ZM137.649 29.712C138.833 29.712 139.793 30.672 139.793 31.856C139.793 33.04 138.833 34 137.649 34H126.609C126.161 34 125.745 33.872 125.393 33.648C124.881 33.296 124.529 32.752 124.465 32.08C124.465 32.016 124.465 31.952 124.465 31.856V13.2C124.465 12.016 125.425 11.056 126.609 11.056C127.793 11.056 128.753 12.016 128.753 13.2V29.712H137.649ZM154.835 11.056C156.019 11.056 156.979 12.016 156.979 13.2C156.979 14.384 156.019 15.344 154.835 15.344H149.139V31.856C149.139 33.04 148.179 34 146.995 34C145.811 34 144.851 33.04 144.851 31.856V15.344H139.187C138.003 15.344 137.043 14.384 137.043 13.2C137.043 12.016 138.003 11.056 139.187 11.056H154.835ZM162.171 11.056C163.355 11.056 164.315 12.016 164.315 13.2V31.856C164.315 33.04 163.355 34 162.171 34C160.987 34 160.027 33.04 160.027 31.856V13.2C160.027 12.016 160.987 11.056 162.171 11.056ZM192.028 13.104C192.028 13.136 192.028 13.168 192.028 13.2V31.856C192.028 33.04 191.068 34 189.884 34C188.7 34 187.74 33.04 187.74 31.856V19.568L182.236 26.8C182.204 26.832 182.172 26.864 182.14 26.928C182.108 26.928 182.108 26.928 182.108 26.928C181.372 27.792 180.38 27.824 179.612 27.44C179.58 27.44 179.58 27.408 179.548 27.408C179.516 27.408 179.516 27.376 179.484 27.376C179.42 27.344 179.324 27.28 179.26 27.216C179.228 27.216 179.228 27.216 179.228 27.216C179.196 27.184 179.196 27.184 179.196 27.184C179.1 27.12 179.004 27.024 178.908 26.928C178.908 26.896 178.876 26.896 178.876 26.864C178.844 26.832 178.812 26.8 178.78 26.768L173.628 19.728V31.856C173.628 33.04 172.668 34 171.484 34C170.3 34 169.34 33.04 169.34 31.856V13.2C169.34 13.168 169.34 13.136 169.34 13.136C169.34 13.072 169.34 13.04 169.34 13.008C169.34 12.976 169.34 12.944 169.34 12.912C169.34 12.88 169.34 12.88 169.34 12.848C169.372 12.72 169.404 12.624 169.436 12.496L169.468 12.464C169.5 12.336 169.564 12.24 169.628 12.112V12.08C169.692 11.984 169.788 11.888 169.852 11.792C169.884 11.76 169.884 11.76 169.916 11.728C169.948 11.696 169.98 11.664 170.012 11.632C170.076 11.568 170.14 11.536 170.172 11.472C170.204 11.472 170.204 11.472 170.204 11.472C170.268 11.408 170.364 11.376 170.428 11.312H170.46C170.524 11.28 170.588 11.248 170.62 11.216C170.652 11.216 170.652 11.216 170.652 11.216C170.748 11.184 170.844 11.152 170.94 11.12C170.972 11.12 170.972 11.12 171.004 11.12C171.036 11.088 171.068 11.088 171.1 11.088C171.132 11.088 171.164 11.088 171.196 11.056C171.26 11.056 171.292 11.056 171.356 11.056C171.356 11.056 171.388 11.056 171.42 11.056C171.42 11.056 171.452 11.056 171.484 11.056C171.58 11.056 171.676 11.056 171.772 11.088H171.804C171.932 11.088 172.06 11.12 172.156 11.184C172.188 11.184 172.188 11.184 172.22 11.184C172.316 11.216 172.444 11.28 172.54 11.344C172.572 11.344 172.572 11.376 172.604 11.376C172.7 11.44 172.796 11.504 172.892 11.6C172.892 11.6 172.924 11.6 172.924 11.632C173.02 11.696 173.116 11.792 173.18 11.92C173.18 11.92 173.18 11.92 173.212 11.92L180.54 21.904L188.188 11.888C188.22 11.856 188.22 11.856 188.22 11.824H188.252C188.316 11.728 188.38 11.664 188.444 11.6C188.476 11.6 188.476 11.568 188.476 11.568C188.572 11.472 188.7 11.408 188.796 11.344C188.796 11.344 188.828 11.344 188.828 11.312C188.956 11.28 189.052 11.216 189.18 11.184L189.212 11.152C189.34 11.12 189.436 11.088 189.564 11.088C189.596 11.088 189.596 11.056 189.628 11.056C189.692 11.056 189.788 11.056 189.884 11.056C189.916 11.056 189.948 11.056 189.98 11.056C189.98 11.056 190.012 11.056 190.044 11.056C190.076 11.056 190.108 11.056 190.172 11.056C190.204 11.088 190.236 11.088 190.268 11.088C190.3 11.088 190.332 11.088 190.396 11.12H190.428C190.492 11.152 190.556 11.152 190.62 11.184C190.652 11.184 190.684 11.216 190.748 11.216C190.78 11.248 190.812 11.28 190.876 11.28C190.908 11.312 190.94 11.312 190.972 11.344C191.004 11.376 191.036 11.376 191.068 11.408C191.1 11.44 191.132 11.472 191.164 11.472C191.164 11.472 191.164 11.472 191.196 11.504C191.228 11.536 191.26 11.536 191.26 11.568C191.292 11.568 191.292 11.568 191.292 11.6C191.356 11.664 191.42 11.696 191.484 11.76C191.484 11.792 191.516 11.792 191.516 11.792C191.58 11.888 191.676 12.016 191.74 12.112V12.144C191.804 12.24 191.868 12.368 191.9 12.496C191.9 12.496 191.9 12.496 191.932 12.528C191.964 12.624 191.996 12.752 191.996 12.88C191.996 12.912 191.996 12.912 191.996 12.944C192.028 12.976 192.028 13.008 192.028 13.072V13.104ZM211.651 29.712C212.835 29.712 213.795 30.672 213.795 31.856C213.795 33.04 212.835 34 211.651 34H199.203C198.019 34 197.059 33.04 197.059 31.856V13.2C197.059 12.016 198.019 11.056 199.203 11.056H211.651C212.835 11.056 213.795 12.016 213.795 13.2C213.795 14.384 212.835 15.344 211.651 15.344H201.347V20.4H209.827C211.01 20.4 211.971 21.36 211.971 22.544C211.971 23.728 211.01 24.688 209.827 24.688H201.347V29.712H211.651ZM234.705 27.728C234.705 27.728 234.705 27.728 234.705 27.76C234.705 29.584 234.001 31.28 232.689 32.528C231.633 33.552 229.713 34.768 226.385 34.768C226.257 34.768 226.161 34.768 226.033 34.768C226.001 34.768 226.001 34.768 226.001 34.768C222.321 34.672 219.729 33.296 217.713 31.952C216.721 31.28 216.433 29.968 217.073 28.976C217.745 27.984 219.057 27.696 220.049 28.368C221.681 29.424 223.505 30.384 226.129 30.48C226.225 30.48 226.289 30.48 226.385 30.48C227.889 30.48 229.009 30.128 229.713 29.456C230.289 28.88 230.417 28.208 230.417 27.76C230.417 27.76 230.417 27.76 230.417 27.728C230.417 27.184 230.385 25.68 225.073 24.56C225.041 24.56 225.041 24.56 225.041 24.56C223.057 24.144 221.585 23.6 220.401 22.832C217.937 21.232 217.457 19.12 217.489 17.616C217.585 12.848 220.785 10.64 225.393 10.64C225.713 10.64 226.065 10.672 226.449 10.704H226.481C226.481 10.704 226.481 10.704 226.513 10.704C228.241 10.832 230.193 11.44 232.465 12.624C233.521 13.168 233.937 14.48 233.393 15.536C232.849 16.56 231.537 16.976 230.481 16.432C228.785 15.568 227.345 15.056 226.225 14.992C226.097 14.992 226.001 14.96 225.905 14.96C223.089 14.8 222.033 15.536 221.873 16.784C221.745 17.904 221.745 19.472 225.937 20.368C228.561 20.912 230.417 21.616 231.793 22.544C234.193 24.144 234.705 26.256 234.705 27.728Z" fill="#C6D5FF"/>
<g clip-path="url(#clip0_438_801)">
<path d="M57.2555 10.9547C56.4487 11.865 55.3879 12.5767 54.4168 13.2808C53.7544 13.7633 52.7497 13.3979 52.3675 12.732C52.0226 12.1273 52.1521 11.4589 52.553 10.9713C52.0976 10.8557 51.6659 10.6583 51.2781 10.3882C50.3331 9.72359 49.8102 8.73945 49.2449 7.75276C49.0856 7.47521 48.92 7.20276 48.7469 6.93922C48.7469 6.93922 48.5676 6.70241 48.5714 6.70241C48.4867 6.59674 48.3995 6.49362 48.3099 6.39431C48.0695 6.12923 47.813 5.88004 47.5417 5.64825C47.4683 5.58459 47.3923 5.52093 47.3188 5.46364C47.2454 5.40635 47.2342 5.3707 47.2479 5.3707C47.3077 5.42217 47.3635 5.47836 47.4147 5.53876C47.3126 5.41144 47.2603 5.3707 47.2479 5.3707C46.9565 5.12244 46.5245 4.92255 46.2269 4.76086C46.1024 4.69593 45.9842 4.63355 45.8634 4.57626L45.7775 4.53042C45.6032 4.43366 45.9966 4.60427 45.7775 4.53042L45.6903 4.49987C45.3945 4.38807 45.0932 4.29203 44.7877 4.21214C44.4887 4.12792 44.1812 4.0788 43.8713 4.06572C43.5627 4.04853 43.2533 4.05109 42.945 4.07336C42.9276 4.07336 42.65 4.10774 42.65 4.10392L42.7085 4.09373C42.6887 4.09557 42.6692 4.09897 42.65 4.10392C42.5454 4.12174 42.4433 4.14211 42.3399 4.16376C42.0742 4.22012 41.8116 4.29066 41.5531 4.3751C41.39 4.42857 41.2306 4.49096 41.07 4.54825L41.0165 4.56862C40.7675 4.65647 41.2717 4.4413 41.0165 4.56862L40.9804 4.58644C40.811 4.67047 40.6405 4.75068 40.4736 4.84107C40.1449 5.01991 39.8272 5.21932 39.5224 5.43818C39.5143 5.4437 39.5064 5.44965 39.4988 5.456C39.4715 5.47132 39.4456 5.48922 39.4216 5.50947L39.3444 5.57695L39.2983 5.60496L39.3307 5.58714L39.2485 5.65843C39.1439 5.75265 39.0456 5.8545 38.9485 5.95635C38.824 6.08366 38.7181 6.21098 38.6073 6.33829L38.5214 6.43633C38.3969 6.56364 38.5986 6.30901 38.5214 6.43633L38.4492 6.54582C38.255 6.83243 38.0767 7.12996 37.9151 7.43702C37.8528 7.56434 37.7981 7.68274 37.7395 7.80369C37.7296 7.82151 37.7221 7.83806 37.7146 7.85207C37.5901 8.1067 37.8018 7.59744 37.7146 7.85207C37.7146 7.8648 37.7047 7.88008 37.6985 7.89917C37.5631 8.25863 37.4471 8.62542 37.3511 8.9979C37.1556 9.83054 36.2804 10.2456 35.5097 10.0673C34.7054 9.87892 34.2821 8.96098 34.4651 8.18436C35.0095 5.8157 36.4503 3.76452 38.4716 2.48065C40.8608 0.98216 43.9 0.513641 46.5469 1.57545C47.678 2.03237 48.7272 2.67768 49.652 3.48517C50.7589 4.43239 51.5034 5.64952 52.2218 6.90612C52.3388 7.11364 52.4633 7.31353 52.5953 7.51214C52.5953 7.51214 52.5953 7.50322 52.5878 7.50195L52.6302 7.56434C52.6227 7.55033 52.614 7.53887 52.6053 7.52487C52.6264 7.54906 52.6601 7.59107 52.7011 7.63563C52.7422 7.68019 52.8057 7.73494 52.858 7.78459C52.8095 7.75403 52.7908 7.7464 52.858 7.79987C52.9252 7.85334 52.9115 7.83679 52.858 7.78459C52.9215 7.82406 53.0373 7.90172 53.0684 7.92336L53.0933 7.93864C53.0746 7.93864 53.056 7.92591 53.0373 7.91954C53.0784 7.93737 53.1531 7.98193 53.1618 7.98702C53.1705 7.99211 53.1357 7.9692 53.0933 7.93991L53.2253 7.98447C53.2838 8.00357 53.6698 8.07359 53.5988 8.07359C53.7405 8.084 53.8827 8.08612 54.0246 8.07996L54.2823 8.05704C54.2276 8.06723 54.1765 8.07741 54.2724 8.05704C54.3234 8.05704 54.3184 8.0494 54.2873 8.05704L54.3595 8.04559C54.5139 8.01121 54.6683 7.98065 54.8202 7.93991C55.058 7.88008 55.2921 7.80496 55.5299 7.7464C56.3416 7.54651 57.3015 7.6089 57.7709 8.44153C58.2764 9.35311 57.883 10.2494 57.2555 10.9547Z" fill="#C6D5FF"/>
<path d="M37.6985 7.85964C37.574 8.11427 37.7857 7.60501 37.6985 7.85964V7.85964Z" fill="#C6D5FF"/>
<path d="M38.5066 6.44021C38.3871 6.5688 38.5838 6.31035 38.5066 6.44021V6.44021Z" fill="#C6D5FF"/>
<path d="M39.3208 5.58334H39.3295C39.3818 5.54642 39.4329 5.50186 39.4839 5.45602C39.5474 5.42547 39.5499 5.45602 39.3208 5.58334Z" fill="#C6D5FF"/>
<path d="M41.0078 4.56476C40.755 4.65515 41.263 4.43744 41.0078 4.56476V4.56476Z" fill="#C6D5FF"/>
<path d="M42.6414 4.10252C42.6606 4.09767 42.6801 4.09433 42.6999 4.09253L42.6414 4.10252Z" fill="#C6D5FF"/>
<path d="M45.7713 4.53046C45.597 4.43752 45.9904 4.60431 45.7713 4.53046V4.53046Z" fill="#C6D5FF"/>
<path d="M47.4085 5.53866C47.3573 5.47827 47.3015 5.42207 47.2417 5.37061C47.2541 5.37061 47.3114 5.41389 47.4085 5.53866Z" fill="#C6D5FF"/>
<path d="M52.6041 7.52365C52.6128 7.53765 52.6215 7.54911 52.629 7.56312L52.5867 7.50073C52.5867 7.50073 52.5867 7.50073 52.5941 7.51092C52.598 7.51464 52.6014 7.51893 52.6041 7.52365Z" fill="#C6D5FF"/>
<path d="M52.8581 7.79849C52.7896 7.74502 52.8083 7.75266 52.8581 7.78321C52.9141 7.83541 52.9353 7.86088 52.8581 7.79849Z" fill="#C6D5FF"/>
<path d="M53.0934 7.93858C53.1357 7.96787 53.1569 7.9806 53.1619 7.98569C53.1668 7.99078 53.0772 7.93604 53.0374 7.91821C53.056 7.91821 53.0747 7.93222 53.0934 7.93731V7.93858Z" fill="#C6D5FF"/>
<path d="M54.2712 8.06205C54.1754 8.07579 54.2264 8.06205 54.2812 8.06205C54.3173 8.05455 54.3223 8.0558 54.2712 8.06205Z" fill="#C6D5FF"/>
<path d="M49.1293 16.447C49.1093 16.6787 49.0832 16.9092 49.0595 17.1409C49.0309 17.4274 49.1093 16.801 49.0782 17.0136C49.067 17.0836 49.0583 17.1536 49.0483 17.2237C49.0209 17.4083 48.9911 17.5916 48.9574 17.7749C48.8069 18.6155 48.5989 19.4442 48.3349 20.255C48.2644 20.4698 48.1897 20.6819 48.1108 20.8916C48.061 21.0189 48.01 21.1551 47.9589 21.2863C47.8494 21.5664 47.9191 21.3818 47.944 21.3219C47.703 21.8876 47.4333 22.4401 47.136 22.977C46.5728 24.007 45.8902 24.9637 45.1028 25.8263C44.3379 26.6791 43.4817 27.4414 42.5505 28.0989C41.6995 28.6898 40.7982 29.2011 39.8575 29.6267C39.8064 29.6496 39.4205 29.81 39.7641 29.6687L39.5462 29.7591C39.3387 29.8439 39.1291 29.9237 38.9175 29.9984C38.5813 30.1194 38.2427 30.2301 37.899 30.3294C36.9353 30.6142 35.9466 30.8014 34.9471 30.8883C34.2935 30.9401 33.6375 30.9537 32.9824 30.9291C32.6844 30.9189 32.3868 30.9002 32.0897 30.8731C31.949 30.8603 31.8096 30.8463 31.6689 30.8298C31.5954 30.8221 31.1945 30.7649 31.5332 30.8158C30.6798 30.6899 29.8364 30.5014 29.0095 30.2518C28.2625 30.0239 27.3449 30.5255 27.1681 31.3199C27.0707 31.7112 27.1252 32.1258 27.3201 32.4768C27.5151 32.8279 27.8354 33.0881 28.2139 33.2029C32.198 34.4112 36.5917 34.2571 40.4489 32.6669C42.8335 31.699 44.9965 30.2371 46.8021 28.3733C48.6077 26.5094 50.0168 24.2838 50.9408 21.8363C51.5851 20.1071 51.9826 18.2921 52.1211 16.447C52.1858 15.6475 51.3865 14.8823 50.627 14.9193C49.7555 14.9587 49.199 15.5927 49.133 16.447H49.1293Z" fill="#C6D5FF"/>
<path d="M13.0282 17.9328H33.2538C34.0357 17.9328 34.7864 17.2287 34.7478 16.405C34.7092 15.5812 34.0905 14.8772 33.2538 14.8772H13.0282C12.2463 14.8772 11.4955 15.5812 11.5341 16.405C11.5727 17.2287 12.1928 17.9328 13.0282 17.9328Z" fill="#C6D5FF"/>
<path d="M28.4939 20.4409H1.49401C0.71088 20.4409 -0.0386321 21.145 -3.59371e-05 21.9687C0.0385602 22.7924 0.657343 23.4965 1.49401 23.4965H28.4939C29.277 23.4965 30.0277 22.7924 29.9879 21.9687C29.9481 21.145 29.3293 20.4409 28.4939 20.4409Z" fill="#C6D5FF"/>
<path d="M13.9894 29.069H25.6578C26.441 29.069 27.1905 28.3649 27.1519 27.5412C27.1133 26.7175 26.4945 26.0134 25.6578 26.0134H13.9894C13.2062 26.0134 12.4567 26.7175 12.4953 27.5412C12.5339 28.3649 13.1527 29.069 13.9894 29.069Z" fill="#C6D5FF"/>
</g>
<defs>
<clipPath id="clip0_438_801">
<rect width="58" height="33" fill="white" transform="translate(0 1)"/>
</clipPath>
</defs>
</svg>
