<svg width="18" height="18" viewBox="0 0 18 18" fill="none" xmlns="http://www.w3.org/2000/svg">
<path fill-rule="evenodd" clip-rule="evenodd" d="M7.75 0.5C3.74594 0.5 0.5 3.74594 0.5 7.75C0.5 11.7541 3.74594 15 7.75 15C9.42765 15 10.9722 14.4302 12.2007 13.4735L16.4636 17.7364C16.8151 18.0879 17.3849 18.0879 17.7364 17.7364C18.0878 17.3849 18.0878 16.8151 17.7364 16.4636L13.4735 12.2007C14.4302 10.9722 15 9.42766 15 7.75C15 3.74594 11.7541 0.5 7.75 0.5ZM7.75 2.3C4.74005 2.3 2.3 4.74005 2.3 7.75C2.3 10.76 4.74005 13.2 7.75 13.2C10.76 13.2 13.2 10.76 13.2 7.75C13.2 4.74005 10.76 2.3 7.75 2.3Z" fill="black" fill-opacity="0.9"/>
</svg>
