<svg width="25" height="25" viewBox="0 0 25 25" fill="black" stroke="black" xmlns="http://www.w3.org/2000/svg">
<g clip-path="url(#clip0_144_864)">
<path d="M23.6537 13.4143L23.0499 13.1066C22.5971 12.7989 21.9933 12.4912 21.5405 12.0297C21.3895 11.4143 21.3895 10.7989 21.0876 10.1835C21.3895 9.56815 21.6914 8.95277 22.1442 8.49123L22.4461 8.02969C23.0499 7.10661 23.0499 6.79892 22.748 6.33738L22.5971 6.18353L21.3895 4.64507C21.2386 4.33738 20.9367 4.18353 20.6348 4.18353H20.4839C20.182 4.18353 19.8801 4.33738 19.4273 4.49123L18.9744 4.79892C18.5216 4.95277 17.9178 5.26046 17.1631 5.26046C16.5593 4.95277 16.1065 4.64507 15.5027 4.33738C15.3518 3.87584 15.0499 3.26046 14.8989 2.64507L14.748 2.02969C14.4461 1.10661 14.1442 0.79892 13.6914 0.79892H13.5405H11.5782H11.4273C10.9744 0.79892 10.6725 1.10661 10.3706 2.02969V2.33738L10.2197 2.64507C10.0688 3.26046 9.91782 3.87584 9.61593 4.33738C8.86121 4.64507 8.40838 4.95277 7.80461 5.26046C7.20084 5.10661 6.59706 4.95277 5.99329 4.64507L5.54046 4.49123C5.08763 4.33738 4.93668 4.18353 4.6348 4.18353H4.48385C4.18197 4.18353 4.13538 4.33738 3.98444 4.49123L3.88008 4.64507L2.67253 6.18353L2.52159 6.33738C2.2197 6.64507 2.2197 7.10661 2.82348 8.02969L3.12536 8.49123C3.42725 8.95277 3.72914 9.56815 4.03102 10.1835C3.88008 10.7989 3.72914 11.4143 3.57819 12.0297C3.12536 12.4912 2.52159 12.7989 2.06876 13.1066L1.61593 13.4143C0.559326 13.8758 0.559326 14.1835 0.559326 14.7989V14.9528L1.01216 16.7989V17.1066C1.1631 17.5681 1.46499 17.8758 2.52159 17.8758H3.12536C3.72914 17.8758 4.33291 18.0297 4.93669 18.1835C5.23857 18.7989 5.6914 19.2605 6.14423 19.722C6.14423 20.4912 6.14423 21.2605 5.99329 21.8758C5.6914 23.4143 5.99329 23.5681 6.59706 23.8758L8.25744 24.6451C8.40838 24.7989 8.55933 24.7989 8.71027 24.7989H8.86121C9.1631 24.7989 9.46499 24.4912 9.91782 24.0297L10.3706 23.5681C10.8235 23.1066 11.2763 22.6451 11.8801 22.3374H12.3329H12.6348H13.0876H13.5405C14.1442 22.7989 14.5971 23.2605 15.0499 23.5681L15.5027 24.0297C15.9556 24.6451 16.2574 24.7989 16.5593 24.7989H16.7103C16.8612 24.7989 16.8612 24.7989 17.0122 24.6451H17.1631L18.6725 23.8758L18.8235 23.722C19.2763 23.4143 19.4273 23.1066 19.1254 21.8758C18.9744 21.2605 18.9744 20.4912 18.9744 19.722C19.4272 19.2605 19.7291 18.7989 20.182 18.1835C20.7857 18.0297 21.5405 17.8758 21.9933 17.8758H22.5971C23.8046 17.8758 23.9556 17.4143 24.1065 16.7989L24.5593 14.9528C24.7103 14.3374 24.7103 14.0297 23.6537 13.4143ZM12.6348 16.6451C10.6725 16.6451 9.1631 15.1066 9.1631 13.1066C9.1631 11.1066 10.6725 9.56815 12.6348 9.56815C14.5971 9.56815 16.1065 11.1066 16.1065 13.1066C16.1065 15.1066 14.4461 16.6451 12.6348 16.6451Z" fill="black"/>
</g>
<defs>
<clipPath id="clip0_144_864">
<rect width="24" height="24" fill="white" transform="translate(0.559326 0.79892)"/>
</clipPath>
</defs>
</svg>
