<svg width="31" height="33" viewBox="0 0 31 33" fill="none" xmlns="http://www.w3.org/2000/svg">
<path fill-rule="evenodd" clip-rule="evenodd" d="M2.60373 13.0502L2.60373 13.0501C1.65797 10.6308 0.991598 8.75142 0.695042 7.54503C0.65341 7.37567 0.610383 7.20339 0.567513 7.03175C0.436971 6.50906 0.307888 5.99222 0.224105 5.58146C0.166306 5.29809 0.102876 4.94114 0.0800229 4.57163C0.0608204 4.26116 0.0409156 3.58684 0.338257 2.86025C0.724756 1.9158 1.53898 1.15352 2.63134 0.892704C3.46952 0.692583 4.18918 0.861192 4.51952 0.952436C5.21369 1.14418 5.96054 1.52889 6.57079 1.85585C8.31872 2.79235 15.1103 6.35173 20.2785 9.06032C22.6866 10.3224 24.7423 11.3998 25.7711 11.941C25.899 12.0083 26.0262 12.075 26.1521 12.1411C26.99 12.5806 27.7699 12.9898 28.3359 13.3439C28.6606 13.5471 29.0976 13.8418 29.4822 14.2325C29.8516 14.6079 30.5082 15.4118 30.5565 16.6203C30.6067 17.8746 29.9747 18.7487 29.5753 19.1793C29.1831 19.6021 28.7327 19.9084 28.4204 20.1061C27.8948 20.4388 27.1701 20.8199 26.419 21.215C26.2761 21.2902 26.1322 21.3659 25.9886 21.4418C25.2143 21.8512 23.7397 22.6326 21.9281 23.5927C16.6893 26.3691 8.63156 30.6393 6.53504 31.7268C5.8777 32.0678 5.11073 32.4521 4.42612 32.6425C4.11717 32.7283 3.36368 32.9162 2.49002 32.6953C1.29059 32.392 0.487932 31.501 0.170192 30.5107C-0.0643877 29.7795 0.00127527 29.1181 0.0339874 28.8425C0.0749272 28.4976 0.149828 28.1588 0.213781 27.8922C0.276031 27.6326 0.352343 27.3434 0.425861 27.0648L0.440939 27.0077C0.522346 26.699 0.607536 26.3748 0.695042 26.0188C0.987513 24.829 1.64368 22.9676 2.57532 20.5663C3.17908 19.0101 4.23095 17.7133 5.55386 16.7913C4.24633 15.8741 3.20557 14.5897 2.60373 13.0502ZM9.65712 15.2559C9.81036 15.2858 10.0241 15.328 10.2832 15.3796C10.4457 15.412 10.6262 15.448 10.8207 15.487C10.9974 15.5224 11.1659 15.5561 11.3263 15.5884C12.8882 15.9033 13.6846 16.0861 13.8584 16.3714C14.023 16.6413 14.0219 16.9824 13.8556 17.2512C13.6799 17.5354 12.8823 17.713 11.3184 18.0177C11.1579 18.049 10.9893 18.0816 10.8126 18.1158C10.618 18.1535 10.4371 18.1884 10.2735 18.2199C10.0186 18.269 9.80563 18.3099 9.64828 18.3397C9.5584 18.3568 9.48668 18.3702 9.43565 18.3796C7.58671 18.7198 6.056 19.9637 5.39744 21.6612C4.57455 23.7822 4.02079 25.3479 3.73616 26.3585C3.69729 26.4965 3.66343 26.6241 3.6346 26.7414C3.63288 26.7484 3.63117 26.7554 3.62945 26.7623C3.53254 27.1557 3.43915 27.5097 3.35603 27.8247C2.79534 29.9499 2.70162 30.3052 5.14122 29.0397C5.34721 28.9329 5.61126 28.795 5.92493 28.6307C6.05202 28.5641 6.18725 28.4932 6.33007 28.4182C9.39972 26.8063 15.9735 23.3225 20.4846 20.9318C22.3062 19.9665 23.7914 19.1794 24.5738 18.7657C24.7664 18.6639 24.9498 18.5674 25.1238 18.4757C25.1327 18.471 25.1415 18.4664 25.1504 18.4617C26.7235 17.6331 27.5282 17.1997 27.5321 16.7591C27.5361 16.3229 26.7553 15.8796 25.1587 15.0388C25.149 15.0337 25.1393 15.0286 25.1296 15.0235C24.8916 14.8982 24.6356 14.7641 24.3617 14.62C23.3451 14.0851 21.305 13.0159 18.9094 11.7604C14.5588 9.48034 9.03572 6.58572 6.34092 5.16118C6.22318 5.09894 6.11083 5.0395 6.00422 4.98305C5.64866 4.79476 5.35686 4.63962 5.14122 4.52408C2.74049 3.23783 2.8519 3.68408 3.48848 6.23396C3.53468 6.41899 3.58364 6.6151 3.6346 6.82243C3.63641 6.82977 3.63823 6.83715 3.64007 6.84457C3.66496 6.94473 3.69338 7.05211 3.72536 7.16672C3.72894 7.17955 3.73256 7.19247 3.73623 7.20549C4.02437 8.22755 4.58664 9.8084 5.42305 11.948C6.08391 13.6386 7.61049 14.8768 9.45343 15.2169C9.49862 15.2253 9.56753 15.2385 9.65712 15.2559Z" fill="#C6D5FF"/>
</svg>
