<svg width="33" height="28" viewBox="0 0 33 28" fill="none" xmlns="http://www.w3.org/2000/svg">
<path d="M20.7593 18.5578C18.4593 20.3578 15.8593 21.2578 12.6593 21.2578C11.8593 21.2578 11.0593 21.2578 10.1593 21.0578C9.45931 20.8578 8.75931 21.0578 8.15931 21.3578C6.65931 22.1578 5.05931 22.6578 3.35931 22.7578C1.85931 22.8578 1.15931 21.9578 1.65931 20.4578C1.75931 20.1578 1.85931 19.8578 1.95931 19.5578C2.55931 17.9578 2.85931 16.4578 1.95931 14.6578C0.059307 11.0578 1.35931 6.85776 4.65931 4.15776C9.15931 0.257758 16.3593 0.257758 20.9593 4.15776C25.6593 8.05776 25.5593 14.6578 20.7593 18.5578Z" fill="white"/>
<path d="M29.7593 20.2577C29.5593 20.7577 29.8593 21.2577 29.9593 21.7577C30.1593 22.6577 30.5593 23.4577 30.8593 24.3577C31.2593 25.8577 30.3593 26.8577 28.7593 26.5577C27.4593 26.3577 26.0593 26.1577 24.8593 25.4577C23.6593 24.6577 22.3593 24.7577 21.0593 25.0577C19.8593 25.3577 18.7593 25.1577 17.6593 24.9577C16.8593 24.8577 16.4593 24.3577 16.5593 23.5577C16.6593 22.8577 17.1593 22.4577 17.8593 22.5577C20.4593 21.5577 22.8593 19.4577 24.7593 17.4577C25.7593 16.3577 26.1593 14.9577 26.6593 13.5577C26.9593 12.4577 26.8593 11.2577 26.6593 10.0577C26.6593 9.95774 26.6593 9.85774 26.6593 9.75774C26.6593 9.35774 26.7593 9.05774 27.1593 8.75774C27.9593 8.05774 28.4593 8.65774 29.0593 9.25774C29.9593 10.1577 30.6593 11.1577 31.1593 12.7577C31.3593 13.3577 31.4593 14.1577 31.4593 15.2577C31.4593 15.9577 31.3593 16.5577 31.3593 17.2577C30.7593 18.2577 30.2593 19.2577 29.7593 20.2577Z" fill="white"/>
</svg>
