<svg width="32" height="26" viewBox="0 0 32 26" fill="none" xmlns="http://www.w3.org/2000/svg">
<path d="M30.8 20C29 23.6 25.9 25.4 21.9 25.5C17.4 25.6 12.9 25.6 8.4 25.5C5.1 25.4 2.5 24 0.9 21C0.5 20.3 0.3 19.4 0 18.6V15.9C0.7 13.7 1.8 11.7 3.9 10.4C4.4 10.1 4.2 9.7 4.2 9.3C4.3 8.1 4.5 7 5 5.9C5.8 4 7.1 2.8 7.7 2.3C9.9 0.5 12.2 0.1 13.2 0C13.7 0 14.2 0 14.7 0C15 0 15.4 0.1 15.9 0.3C17.4 0.7 19.3 1.3 20.8 2.8C21.6 3.6 22.3 4.5 22.8 5.6C23.1 6.3 23.6 6.6 24.3 6.8C26.4 7.3 28.2 8.4 29.5 10.1C32 13.1 32.5 16.5 30.8 20Z" fill="white" fill-opacity="0.5"/>
</svg>
