<svg width="532" height="318" viewBox="0 0 532 318" fill="none" xmlns="http://www.w3.org/2000/svg">
<path d="M408.697 205.011V184.06L470.415 86.5455H487.887V116.375H477.234L435.685 182.213V183.349H521.836V205.011H408.697ZM478.086 232V198.619L478.37 189.244V86.5455H503.228V232H478.086Z" fill="#2A457A"/>
<g clip-path="url(#clip0_636_1530)">
<path d="M250.95 259.32C297.524 259.32 335.28 221.564 335.28 174.99C335.28 128.416 297.524 90.6599 250.95 90.6599C204.376 90.6599 166.62 128.416 166.62 174.99C166.62 221.564 204.376 259.32 250.95 259.32Z" fill="#C6D5FF"/>
<path d="M256.53 223C276.122 233.448 297.947 239.009 320.15 239.21C312.247 236.455 304.977 232.143 298.77 226.53C306.07 229.27 313.16 232.62 321.06 233.38C328.96 234.14 336.67 233.29 344.52 232.86C343.52 231.22 341.84 231.05 340.27 230.77C333.21 229.51 326.52 227.32 320.67 223.01C317.566 220.741 315.055 217.757 313.35 214.31C324.87 224.31 337.92 225.25 351.55 223.52L351.73 222.89L347.73 220.83L347.86 220.56L348.77 220.83C352.452 222.088 356.44 222.134 360.15 220.96C362.9 220.05 365.83 219.29 368.97 220.36C370.15 220.77 371.87 219.67 373.33 219.21C374.98 218.69 376.73 218.37 378.13 217.21C379.24 216.32 379.42 215.57 377.98 214.6C375.549 213.1 372.818 212.151 369.98 211.82C362.149 210.496 354.813 207.106 348.73 202C347.814 201.317 347.048 200.452 346.48 199.46C349.86 200.8 352.91 202.04 355.98 203.23C361.81 205.51 367.98 206.59 374.09 207.55C375.613 207.836 377.182 207.761 378.67 207.33C379.036 207.262 379.365 207.064 379.595 206.771C379.825 206.478 379.941 206.112 379.92 205.74C379.92 204.9 379.83 204.12 378.85 203.82C378.59 203.75 378.35 203.62 378.09 203.55C368.81 200.92 361.17 195.55 353.55 189.81C344.267 182.662 335.443 174.937 327.13 166.68C313.93 154 298.37 145 281.28 138.43C271.28 134.6 261.45 130.32 250.89 128.18C247.334 127.361 243.72 126.819 240.08 126.56C245.762 126.18 251.466 126.858 256.9 128.56C275.64 133.86 293.85 140.56 310.43 150.95C319.524 156.543 327.757 163.428 334.87 171.39C347.13 185.31 362.35 194.66 379.67 200.82C380.732 201.125 381.664 201.773 382.319 202.663C382.974 203.553 383.315 204.635 383.29 205.74C383.441 206.808 383.269 207.896 382.797 208.865C382.325 209.834 381.574 210.64 380.64 211.18C379.89 211.59 379.119 211.96 378.33 212.29C378.54 213.13 379.33 213.16 379.86 213.49C381.72 214.61 382.11 215.92 381.09 217.88C380.43 219.233 379.3 220.3 377.91 220.88C369.41 224.27 361.07 228.09 352.22 230.57C351.773 230.706 351.314 230.803 350.85 230.86C349.77 230.95 349.26 231.06 349.97 232.39C351.05 234.39 349.75 236.01 348.47 237.39C346.962 238.863 344.938 239.688 342.83 239.69C338.89 239.93 334.94 240.08 330.99 240.26C330.34 240.26 329.63 240.08 329.14 240.73C326.22 244.6 321.95 245.39 317.62 245.16C307.62 244.61 297.62 243.84 287.88 240.94C276.58 237.49 264 230.46 256.53 223Z" fill="#2A457A"/>
<path d="M280.63 276C265.74 277.3 252.02 273.4 238.93 266.61C231.09 262.54 223.28 258.4 215.56 254.11C207.724 249.809 200.866 243.928 195.42 236.84C194.107 235.063 192.394 233.621 190.42 232.63C177.08 226.08 169.55 214.78 165.2 201.09C161.52 189.47 160.99 177.45 161.29 165.34C161.678 153.286 162.77 141.266 164.56 129.34C165.07 125.8 164.62 122.12 164.56 118.51C164.4 112.89 164.33 107.25 163.91 101.65C163.63 97.9299 162.42 94.2699 162.27 90.5599C161.57 73.4999 166.77 59.0899 181.67 49.3299C185.93 46.5399 190.84 46.1399 195.67 45.6899C201.61 45.1999 207.46 45.4299 213 47.9999C213.441 48.1703 213.929 48.1703 214.37 47.9999C217.93 47.0599 223.85 49.2599 225.75 52.2099C225.94 52.4999 226.17 52.7899 225.98 53.1299C225.79 53.4699 225.27 53.3899 224.92 53.2399C223.38 52.5899 221.81 51.9799 220.31 51.2399C219.331 50.7062 218.203 50.5147 217.103 50.6959C216.003 50.8771 214.995 51.4205 214.24 52.2399C213.55 52.8599 212.84 54.0199 211.71 53.2399C210.58 52.4599 211.31 51.5499 211.76 50.7199C212.39 49.5699 211.38 49.5199 210.76 49.2799C206 47.3499 201.1 47.2799 196.12 47.6899C194.19 47.8599 192.26 48.1099 190.34 48.3899C187.023 48.8986 183.871 50.1797 181.14 52.1299C171.66 58.6599 166.73 68.0599 164.76 78.9999C164.045 83.7129 164.045 88.5069 164.76 93.2199C166.84 109.33 166.76 125.47 166.22 141.63C165.96 149.72 165.22 157.81 165.47 165.91C165.81 178.46 167.02 190.91 171.37 202.81C173.78 209.4 176.67 215.66 182.14 220.41C184.51 222.47 186.05 225.35 188.54 227.33C189.91 228.4 191.31 229.42 192.67 230.49C196.03 233.13 198.4 236.65 200.99 239.95C202.362 241.674 203.983 243.184 205.8 244.43C212.59 249.28 220.16 252.72 227.59 256.43C240.19 262.68 252.91 268.6 266.59 272.11C271.33 273.29 276 274.7 280.63 276Z" fill="#2A457A"/>
<path d="M398.17 215.22C404.97 216.17 411.84 216.92 418.45 218.93C429.98 222.43 441.93 224.29 453.45 227.76C457.016 228.713 460.416 230.207 463.53 232.19C466.8 234.41 466.81 236.79 463.66 239.19C461.848 240.363 459.953 241.403 457.99 242.3L461.15 242.99C466.159 244.001 470.868 246.153 474.91 249.28C476.1 250.28 477.52 251.28 476.91 253.08C476.3 254.88 474.59 255.08 472.91 255.26C470.66 255.48 468.42 255.04 465.83 254.96C467.64 257.34 468.61 259.53 467.21 262.2C465.67 265.2 463.1 266.08 460.06 266.14C451.76 266.158 443.47 265.552 435.26 264.33C429.016 263.538 422.895 261.969 417.04 259.66C421.18 260.4 425.32 261.1 429.5 261.59C436.88 262.47 444.3 262.88 451.7 263.59C455.16 264.006 458.65 264.123 462.13 263.94C465.92 263.64 467.83 260.07 465.85 257.22C465.464 256.711 464.98 256.285 464.427 255.965C463.874 255.646 463.263 255.44 462.63 255.36C460.93 255.02 459.18 254.85 457.5 254.43C456.6 254.2 455.29 253.97 455.44 252.65C455.59 251.33 456.89 251.51 457.85 251.49C461.601 251.47 465.349 251.7 469.07 252.18C470.729 252.399 472.41 252.399 474.07 252.18C474.18 251.33 473.56 251.03 473.13 250.69C468.874 247.195 463.95 244.602 458.66 243.07C457.562 242.763 456.408 242.718 455.29 242.94C443.41 245.21 431.44 244.94 419.45 244.3C415.001 244.137 410.571 243.629 406.2 242.78C406.82 242.12 407.56 242.35 408.2 242.34C420.59 242.23 432.97 241.65 445.33 240.98C450.33 240.71 455.33 240.21 459.94 237.84C460.94 237.31 462.54 236.9 462.55 235.63C462.56 234.36 461.04 234.08 460.07 233.56C455.594 231.278 450.836 229.597 445.92 228.56C435.03 226.02 424.36 222.73 413.69 219.42C408.56 217.79 403.34 216.6 398.17 215.22Z" fill="#2A457A"/>
<path d="M264.3 281.64C257.14 293.77 247.21 301.64 232.36 301.47C228.46 301.47 225.46 302.76 223.9 306.59C223.59 307.35 222.74 307.86 222.61 308.75L223.08 309.23C223.488 308.6 223.942 308.002 224.44 307.44C225.28 306.63 225.98 305.18 227.54 306.52C227.73 306.68 228.39 306.2 228.83 306.2C229.27 306.2 230.43 305.25 230.08 306.95C229.95 307.6 230.8 307.37 231.17 307.29C233.144 307.016 235.094 306.585 237 306C238.42 305.45 240.16 305.7 241.75 305.57C255.4 304.48 264.38 296.25 271.91 285.82C272.529 284.948 273.099 284.044 273.62 283.11C274.11 282.25 274.52 281.35 275.06 280.28C275.207 281.283 275.017 282.307 274.52 283.19C269.1 295.19 260.44 303.53 247.52 307C245.457 307.643 243.265 307.75 241.15 307.31C240.486 307.198 239.806 307.218 239.15 307.37C235.72 307.96 232.29 308.58 228.87 309.2C228.272 309.274 227.686 309.429 227.13 309.66C226.13 310.16 224.92 311.08 225.13 311.92C225.38 312.92 226.78 312.21 227.63 312.14C232.63 311.7 237.63 311.36 242.63 311.32C243.483 311.271 244.317 311.046 245.08 310.66C248.82 309.08 252.45 307.2 256.48 306.37C257.36 306.19 257.37 306.23 258.8 306.76C256.5 307.76 254.38 308.76 252.28 309.71C251.72 309.97 250.95 310.07 251.03 311.03C251.11 311.99 251.83 312.18 252.52 312.43C252.704 312.514 252.907 312.552 253.11 312.54C257.94 311.67 263.4 311.92 267 308.16C270.6 304.4 274.87 304.6 279.21 304.16C276.1 305.3 272.69 305.57 269.82 307.4C269.223 307.695 268.668 308.068 268.17 308.51C264.22 313.1 258.69 314.08 253.23 314.23C250.455 314.274 247.697 314.684 245.03 315.45C244.19 315.69 243.46 315.55 243.22 314.73C242.82 313.4 241.92 313.45 240.86 313.57C235.95 314.15 231.02 314.69 226.1 315.27C224.964 315.363 223.882 315.799 223 316.52C222.411 316.969 221.726 317.277 221 317.42C220.712 317.516 220.4 317.516 220.112 317.42C219.824 317.325 219.574 317.139 219.4 316.89C218.96 316.28 219.25 315.73 219.65 315.25C220.21 314.58 220.84 313.98 221.39 313.3C221.454 313.221 221.5 313.129 221.525 313.03C221.549 312.931 221.552 312.829 221.533 312.729C221.514 312.629 221.474 312.534 221.414 312.451C221.355 312.369 221.278 312.3 221.19 312.25C220.82 311.96 220.62 312.25 220.38 312.51C220.14 312.77 219.93 313.51 219.38 312.92C218.83 312.33 219.28 312.03 219.49 311.64C220.458 310.118 221.233 308.482 221.8 306.77C217.98 308.38 214.46 309.82 212.26 313.27C211.44 314.322 210.508 315.281 209.48 316.13C209.319 316.309 209.098 316.423 208.86 316.452C208.621 316.482 208.379 316.424 208.18 316.29C207.972 316.167 207.816 315.972 207.74 315.742C207.665 315.512 207.675 315.263 207.77 315.04C208.59 311.9 209.21 308.64 212.9 307.36C213.657 306.934 214.362 306.421 215 305.83C216.42 304.83 218.11 304.04 219.71 304.54C222.32 305.36 223.6 304.23 225 302.29C226.61 300.05 229.22 299.6 231.82 299.51C234.837 299.512 237.848 299.251 240.82 298.73C250.23 296.73 256.75 290.61 262.72 283.67C263.24 283.06 263.72 282.39 264.18 281.75C264.18 281.7 264.25 281.68 264.3 281.64Z" fill="#2A457A"/>
<path d="M229.67 221.47C234.03 219.19 234.67 217.14 232.59 212.95C231.218 210.404 229.252 208.226 226.86 206.6C225.86 205.84 224.75 205.17 223.77 204.37C221.34 202.37 221.23 200.59 223.29 198.05C223.69 198.05 223.66 198.34 223.68 198.58C223.676 199.368 223.859 200.146 224.213 200.849C224.567 201.553 225.082 202.164 225.717 202.631C226.351 203.098 227.087 203.408 227.865 203.537C228.642 203.665 229.439 203.608 230.19 203.37C230.693 203.27 231.146 203.001 231.475 202.608C231.804 202.216 231.989 201.722 232 201.21C232.154 199.53 231.806 197.842 231 196.36C228.772 191.702 225.826 187.424 222.27 183.68C220.388 181.776 218.73 179.662 217.33 177.38C216.905 176.699 216.569 175.966 216.33 175.2C216.13 174.52 215.88 173.55 216.54 173.2C217.2 172.85 217.54 173.78 217.99 174.2C223.38 179.47 228.15 185.2 231.48 192.05C232.6 194.35 233.6 196.69 233.48 199.32C233.31 203.27 232.05 204.43 228.32 204.25C229.16 205.17 230.04 206.15 230.95 207.09C232.97 209.065 234.412 211.555 235.12 214.29C235.384 215.157 235.449 216.073 235.308 216.968C235.168 217.863 234.827 218.715 234.31 219.46C234.006 219.808 233.851 220.262 233.877 220.724C233.903 221.185 234.109 221.618 234.45 221.93C241.45 231.09 250.64 236.36 262.23 237.08C267.309 237.306 272.354 238.033 277.29 239.25C277.79 239.38 278.72 239.25 278.63 240.07C278.55 240.73 277.75 240.75 277.18 240.93C275.57 241.43 273.97 241.01 272.39 240.84C269.12 240.5 265.84 240.63 262.56 240.5C249.96 240 240.56 234.1 234.27 223.3C233.42 221.85 232.82 220.67 230.92 221.61C230.67 221.66 230.36 221.53 229.67 221.47Z" fill="#2A457A"/>
<path d="M242.48 45C238.722 47.4611 234.602 49.3202 230.27 50.51C229.39 50.77 227.95 51.8 227.64 50.94C227.12 49.48 229.01 49.74 229.83 49.3C231.94 48.16 234.16 47.2 236.36 46.23C238.409 45.3892 240.274 44.1561 241.85 42.6C242.56 41.87 243.48 41.24 244.55 41.81C245.62 42.38 245.23 43.36 245.15 44.3C244.66 49.85 241.46 54.08 238.36 58.3C235.26 62.52 232.1 67.16 228.67 71.36C227.474 72.9141 226.843 74.8292 226.88 76.79C226.653 81.407 227.081 86.0329 228.15 90.53C229.69 96.32 231.67 101.85 236.29 106.3C242.22 112.02 248.09 117.79 254.17 123.3C254.684 123.707 255.225 124.078 255.79 124.41L255.24 125.01C250.88 121.64 246.49 118.3 242.16 114.89C240.48 113.56 239.04 111.89 237.3 110.69C229.88 105.45 226.97 97.69 225.09 89.31C224.63 87.22 224.23 85.11 223.95 82.99C223.509 80.2368 223.641 77.4223 224.338 74.7225C225.035 72.0227 226.282 69.4958 228 67.3C232.4 61.66 236.13 55.52 241 50.3C242.36 48.91 242.35 47 242.48 45Z" fill="#2A457A"/>
<path d="M325.17 270.22C325.44 270.37 325.71 270.55 325.99 270.67C326.78 271 327.84 271.15 327.83 272.23C327.82 273.31 326.76 273.86 325.83 274.23C322.94 275.23 319.91 275.23 316.91 275.45C310.5 275.91 304.09 276.34 298.15 279.19C295.46 280.48 293.24 282.42 290.81 284.08C293.4 280.21 300.71 275.77 306.62 274.44C311.219 273.553 315.879 273.018 320.56 272.84C322.023 272.832 323.477 272.599 324.87 272.15C323.2 271.06 321.38 270.92 319.7 270.4C318.78 270.11 317.44 270.22 317.62 268.78C317.8 267.34 319.06 267.61 320.04 267.53C325.51 267.09 331.04 267.07 336.46 266.4C341.183 265.953 345.864 265.137 350.46 263.96C351.768 263.654 353.017 263.137 354.16 262.43C354.731 262.14 355.194 261.675 355.482 261.103C355.77 260.531 355.867 259.881 355.76 259.25C355.12 256.01 355.62 254.92 358.76 253.85C363.07 252.41 367.44 251.14 371.82 249.93C376.451 248.534 381.354 248.294 386.1 249.23C383.27 249.59 380.4 249.53 377.58 250.04C371.29 251.19 365.37 253.51 359.33 255.48C357.52 256.07 356.71 257.06 357.18 259.25C357.74 261.82 355.98 263.49 353.88 264.66C350.71 266.262 347.297 267.329 343.78 267.82C337.67 268.9 331.48 269.49 325.17 270.22Z" fill="#2A457A"/>
<path d="M188.41 71.2598C188.384 70.4265 188.528 69.5966 188.831 68.82C189.135 68.0435 189.592 67.3363 190.176 66.7412C190.76 66.1461 191.458 65.6753 192.229 65.3571C192.999 65.0389 193.826 64.88 194.66 64.8898C196.277 64.9779 197.8 65.6744 198.924 66.8393C200.048 68.0042 200.69 69.5513 200.72 71.1698C200.72 74.2698 197.25 77.1698 193.42 77.2598C190 77.3198 188.42 75.4498 188.41 71.2598ZM197.41 70.4498C197.35 68.6898 196.52 67.9298 195.15 67.8698C193.78 67.8098 193.36 68.8698 193.35 70.0098C193.313 70.295 193.34 70.5849 193.43 70.858C193.52 71.1311 193.671 71.3803 193.871 71.587C194.071 71.7937 194.315 71.9526 194.585 72.0518C194.855 72.1509 195.144 72.1879 195.43 72.1598C196.61 72.1198 197.46 71.4998 197.42 70.4498H197.41Z" fill="#2A457A"/>
<path d="M286 281.93C284.19 285.47 281.47 288.33 279 291.37C277.548 293.204 276.244 295.15 275.1 297.19C274.37 298.44 274.73 298.89 276.1 298.79C278.776 298.697 281.45 299.035 284.02 299.79C288.66 300.94 291.18 304.79 294.28 307.79C294.562 308.137 294.701 308.579 294.668 309.026C294.634 309.472 294.431 309.889 294.1 310.19C293.799 310.562 293.371 310.81 292.898 310.885C292.426 310.961 291.942 310.859 291.54 310.6C289.54 309.44 287.54 308.18 285.54 306.92C284.26 306.11 284.34 304.74 284.37 303.5C284.4 302.26 285.73 303.5 286.12 302.5C284.071 301.099 281.7 300.243 279.23 300.01C277.7 299.85 276.159 299.85 274.63 300.01C274.06 300.01 273.47 300.55 272.99 299.91C272.51 299.27 272.99 298.65 273.26 298.06C274.814 294.873 276.836 291.938 279.26 289.35C281.54 286.88 283.77 284.4 286 281.93Z" fill="#2A457A"/>
<path d="M221 174.45C220.949 174.109 220.983 173.76 221.1 173.435C221.217 173.111 221.413 172.82 221.67 172.59C223.4 170.95 223.05 169.29 221.84 167.59C218.33 162.65 218.79 157.59 221.41 152.5C221.702 151.898 221.79 151.217 221.66 150.56C221.236 147.58 221.119 144.564 221.31 141.56C222.86 145.8 225.14 149.84 223.78 154.71C222.78 158.41 222.23 162.2 223.78 165.93C224.362 167.122 224.511 168.48 224.201 169.771C223.891 171.061 223.141 172.203 222.08 173C221.681 173.454 221.32 173.938 221 174.45Z" fill="#2A457A"/>
<path d="M218.78 31.5098C218.925 31.177 219.137 30.8778 219.403 30.631C219.67 30.3842 219.984 30.1952 220.327 30.0759C220.67 29.9566 221.034 29.9096 221.395 29.9378C221.757 29.966 222.11 30.0689 222.43 30.2398C222.939 30.4714 223.367 30.8503 223.659 31.3275C223.951 31.8048 224.093 32.3585 224.068 32.9174C224.042 33.4762 223.849 34.0146 223.515 34.463C223.18 34.9114 222.719 35.2493 222.191 35.4332C221.662 35.617 221.091 35.6384 220.55 35.4945C220.01 35.3506 219.525 35.048 219.158 34.6258C218.791 34.2036 218.558 33.6811 218.491 33.1258C218.424 32.5704 218.524 32.0075 218.78 31.5098ZM222.54 26.4298L223 25.3498C223.87 23.0898 225.83 21.1399 229 19.7899C231.88 18.5998 233.67 17.5898 234.59 15.7898C235.65 13.7898 235.1 11.7898 232.59 10.4198C231.179 9.68632 229.578 9.39697 228 9.58985L228.36 6.58985C230.604 6.43405 232.845 6.92329 234.82 7.99985C239.35 10.3698 239.96 14.2699 238.39 17.2899C237 19.9599 234.46 21.1299 231.39 22.3598C228.57 23.4898 227 24.9098 226.11 26.9998L225.63 27.9998L222.54 26.4298Z" fill="#2A457A"/>
<path d="M183.56 22.0499L183.44 20.8899C183.17 18.4899 184 15.8899 186.21 13.1799C188.21 10.7899 189.33 9.06994 189.33 7.06994C189.33 4.78994 187.92 3.24994 185.08 3.22994C183.475 3.22139 181.905 3.70281 180.58 4.60994L179.5 1.79994C181.417 0.600498 183.638 -0.0241727 185.9 -5.98038e-05C191 -5.98038e-05 193.36 3.17994 193.36 6.57994C193.36 9.57994 191.66 11.7999 189.51 14.3099C187.51 16.6599 186.83 18.6299 186.98 20.9099L187 22.0499H183.56ZM182.56 28.2899C182.535 27.928 182.585 27.5649 182.708 27.2234C182.83 26.8818 183.022 26.5693 183.27 26.3054C183.519 26.0415 183.82 25.8319 184.154 25.6899C184.488 25.5478 184.847 25.4763 185.21 25.4799C185.572 25.4746 185.932 25.545 186.265 25.6868C186.599 25.8285 186.899 26.0384 187.147 26.303C187.394 26.5676 187.584 26.881 187.703 27.2232C187.823 27.5654 187.869 27.9287 187.84 28.2899C187.84 28.9901 187.562 29.6616 187.067 30.1567C186.572 30.6518 185.9 30.9299 185.2 30.9299C184.5 30.9299 183.828 30.6518 183.333 30.1567C182.838 29.6616 182.56 28.9901 182.56 28.2899Z" fill="#2A457A"/>
<path d="M150.27 39.0898L149.43 38.2898C147.66 36.6398 146.57 34.0998 146.51 30.6298C146.51 27.5098 146.19 25.4798 144.89 23.9598C143.4 22.2298 141.33 21.9598 139.16 23.8198C137.933 24.8639 137.056 26.2605 136.65 27.8198L134 26.3698C134.673 24.2097 135.95 22.2873 137.68 20.8298C141.56 17.4998 145.41 18.3798 147.68 20.9598C149.68 23.2398 149.79 26.0298 149.79 29.3298C149.79 32.3998 150.58 34.3298 152.18 35.9898L152.97 36.8198L150.27 39.0898ZM153.6 44.4598C153.334 44.2041 153.123 43.8955 152.983 43.5538C152.843 43.212 152.776 42.8448 152.786 42.4756C152.796 42.1064 152.883 41.7433 153.042 41.4098C153.2 41.0762 153.427 40.7795 153.707 40.5387C153.987 40.2979 154.314 40.1182 154.668 40.0113C155.021 39.9044 155.393 39.8726 155.76 39.9179C156.127 39.9632 156.48 40.0846 156.796 40.2744C157.113 40.4642 157.387 40.7181 157.6 41.0198C157.842 41.2799 158.03 41.5863 158.151 41.9207C158.272 42.255 158.325 42.6104 158.305 42.9654C158.285 43.3205 158.194 43.6679 158.037 43.9869C157.88 44.3059 157.66 44.5898 157.39 44.8217C157.121 45.0536 156.807 45.2286 156.468 45.3362C156.129 45.4439 155.772 45.4819 155.418 45.4481C155.064 45.4143 154.721 45.3094 154.408 45.1395C154.096 44.9697 153.821 44.7385 153.6 44.4598Z" fill="#2A457A"/>
</g>
<path d="M10.6967 205.011V184.06L72.4155 86.5455H89.8871V116.375H79.2337L37.6854 182.213V183.349H123.836V205.011H10.6967ZM80.0859 232V198.619L80.37 189.244V86.5455H105.228V232H80.0859Z" fill="#2A457A"/>
<defs>
<clipPath id="clip0_636_1530">
<rect width="343.05" height="317.48" fill="white" transform="translate(134)"/>
</clipPath>
</defs>
</svg>
