<svg width="32" height="32" viewBox="0 0 32 32" fill="none" xmlns="http://www.w3.org/2000/svg">
<g clip-path="url(#clip0_144_459)">
<path d="M16 0C7.14465 0 0 7.14465 0 16C0 24.8553 7.14465 32 16 32C24.8553 32 32 24.8553 32 16C31.8994 7.14465 24.7547 0 16 0ZM23.8491 11.9748C23.3459 15.2956 22.7421 18.717 22.239 22.0377C21.8365 24.2516 21.0314 24.5535 19.2201 23.3459C17.8113 22.3396 16.3019 21.434 14.8931 20.4277C13.9874 19.8239 13.8868 19.2201 14.6918 18.4151C16.1006 17.1069 17.4088 15.8994 18.8176 14.5912C19.1195 14.2893 19.4214 13.8868 19.8239 13.4843C19.7233 13.3836 19.6226 13.283 19.522 13.1824C19.1195 13.3836 18.717 13.5849 18.4151 13.7862C16.4025 15.0943 14.4906 16.4025 12.478 17.7107C11.3711 18.4151 7.6478 18.1132 6.84277 17.1069C6.74214 16.9057 6.74214 16.5031 6.84277 16.3019C6.9434 16.1006 7.34591 16 7.54717 15.8994C12.1761 13.9874 16.805 11.9748 21.434 10.0629C21.5346 10.0629 21.6352 10.0629 21.6352 9.96226C23.7484 9.25786 24.1509 9.66038 23.8491 11.9748Z" fill="#2A457A"/>
<path d="M23.7001 11.8999C23.2001 15.1999 22.6001 18.5999 22.1001 21.8999C21.7001 24.0999 20.9001 24.3999 19.1001 23.1999C17.7001 22.1999 16.2001 21.2999 14.8001 20.2999C13.9001 19.6999 13.8001 19.0999 14.6001 18.2999C16.0001 16.9999 17.3001 15.7999 18.7001 14.4999C19.0001 14.1999 19.3001 13.7999 19.7001 13.3999C19.6001 13.2999 19.5001 13.1999 19.4001 13.0999C19.0001 13.2999 18.6001 13.4999 18.3001 13.6999C16.3001 14.9999 14.4001 16.2999 12.4001 17.5999C11.3001 18.2999 7.6001 17.9999 6.8001 16.9999C6.7001 16.7999 6.7001 16.3999 6.8001 16.1999C6.9001 15.9999 7.3001 15.8999 7.5001 15.7999C12.1001 13.8999 16.7001 11.8999 21.3001 9.99987C21.4001 9.99987 21.5001 9.99987 21.5001 9.89987C23.6001 9.19987 24.0001 9.59987 23.7001 11.8999Z" fill="white"/>
</g>
<defs>
<clipPath id="clip0_144_459">
<rect width="31.7" height="31.7" fill="white"/>
</clipPath>
</defs>
</svg>
