<svg width="32" height="32" viewBox="0 0 32 32" fill="none" xmlns="http://www.w3.org/2000/svg">
<path d="M14.3387 0.0692748C14.594 0.0449538 14.8695 0.0165794 14.9465 0.00847247C15.0235 0.000365502 15.5908 -0.00368798 16.2026 0.00441899C16.9198 0.012526 17.5113 0.0409004 17.8639 0.0854887C18.1637 0.12197 18.6499 0.194933 18.9376 0.247628C19.2253 0.300323 19.6832 0.401661 19.9506 0.47057C20.218 0.539479 20.6637 0.669191 20.9433 0.758367C21.2229 0.851597 21.6605 1.00563 21.9157 1.10697C22.171 1.2083 22.6005 1.39476 22.8679 1.52448C23.1353 1.65013 23.573 1.87713 23.8404 2.02711C24.1078 2.18114 24.5819 2.47299 24.8939 2.67972C25.2059 2.8905 25.7083 3.25531 26.0081 3.49852C26.308 3.73768 26.8428 4.22004 27.1994 4.56459C27.5519 4.90914 28.0341 5.42798 28.2731 5.71173C28.5081 5.99952 28.8606 6.45351 29.0551 6.7251C29.2496 6.99668 29.5333 7.43041 29.6913 7.68577C29.8453 7.94114 30.0924 8.37892 30.2342 8.65861C30.3801 8.9383 30.607 9.42067 30.7407 9.73279C30.8744 10.0449 31.077 10.584 31.1905 10.9286C31.3039 11.2731 31.4619 11.8122 31.5389 12.1243C31.6159 12.4365 31.7253 12.9553 31.778 13.2796C31.8347 13.6039 31.8995 14.0416 31.9239 14.2524C31.9482 14.4632 31.9806 15.0753 31.9927 15.6103C32.0089 16.2103 31.9968 16.8142 31.9684 17.1912C31.9401 17.5276 31.8833 18.0465 31.8388 18.3464C31.7942 18.6464 31.7051 19.149 31.6362 19.4612C31.5673 19.7733 31.4417 20.2678 31.3525 20.5556C31.2675 20.8434 31.1135 21.3095 31.0081 21.5892C30.9028 21.8689 30.7123 22.3351 30.5786 22.6229C30.449 22.9107 30.214 23.389 30.0519 23.6768C29.8939 23.9646 29.6102 24.4429 29.4198 24.7307C29.2294 25.0185 28.9376 25.44 28.7675 25.663C28.6013 25.8859 28.3015 26.2507 28.111 26.4737C27.9166 26.6966 27.5154 27.1182 27.2156 27.41C26.9198 27.7019 26.5389 28.0586 26.3728 28.2005C26.2067 28.3464 25.8866 28.6018 25.6637 28.768C25.4409 28.9382 25.0195 29.2301 24.7318 29.4206C24.4441 29.6111 23.966 29.8948 23.6783 30.0529C23.3906 30.215 22.9125 30.4502 22.6248 30.5839C22.3371 30.7136 21.8469 30.9122 21.5389 31.0298C21.235 31.1433 20.7245 31.3095 20.4044 31.3987C20.0883 31.4878 19.6102 31.6094 19.3428 31.6662C19.0754 31.7229 18.6175 31.804 18.3298 31.8445C18.0421 31.8891 17.5276 31.9459 17.1953 31.9702C16.8347 31.9986 16.1945 32.0067 15.6151 31.9945C15.0802 31.9824 14.4157 31.9459 14.1361 31.9094C13.8566 31.877 13.3825 31.804 13.0827 31.7473C12.7828 31.6905 12.2885 31.5811 11.9886 31.5041C11.6888 31.427 11.2512 31.3014 11.0162 31.2244C10.7812 31.1474 10.372 30.9974 10.1045 30.892C9.8371 30.7866 9.32657 30.5596 8.97 30.3853C8.61344 30.211 8.08264 29.9232 7.79496 29.7489C7.50322 29.5746 7.08588 29.3071 6.86303 29.149C6.64018 28.9949 6.23094 28.6869 5.95136 28.4639C5.67178 28.241 5.10452 27.7222 4.69122 27.3087C4.27793 26.8912 3.74309 26.3075 3.50403 26.0075C3.26496 25.7076 2.9003 25.2049 2.6896 24.8928C2.48295 24.5807 2.19122 24.1064 2.03725 23.8389C1.88733 23.5714 1.66448 23.1417 1.54292 22.8863C1.42136 22.631 1.23498 22.2013 1.12963 21.9338C1.02428 21.6662 0.854101 21.192 0.752804 20.8799C0.651507 20.5678 0.513743 20.0854 0.444862 19.8057C0.380032 19.526 0.286839 19.0882 0.238216 18.8329C0.193645 18.5775 0.128816 18.1276 0.0923487 17.8398C0.0599337 17.552 0.019415 16.8912 0.00725935 16.3805C-0.00894814 15.813 0.00320748 15.2131 0.0315706 14.8402C0.0599337 14.5078 0.11666 13.9768 0.161231 13.6647C0.205801 13.3525 0.298994 12.8499 0.363824 12.55C0.432706 12.25 0.538055 11.8203 0.602885 11.5974C0.667715 11.3744 0.797374 10.9732 0.886516 10.7056C0.979709 10.4381 1.1823 9.92735 1.33627 9.57065C1.49024 9.21394 1.74551 8.68293 1.90354 8.39513C2.06561 8.10734 2.30467 7.69388 2.43838 7.4831C2.57209 7.27232 2.80305 6.92372 2.95297 6.71294C3.10289 6.50216 3.39462 6.11708 3.60127 5.86171C3.80792 5.60634 4.31035 5.06722 4.71148 4.66187C5.11667 4.26058 5.69204 3.73768 5.99188 3.49447C6.29171 3.25531 6.79415 2.8905 7.10614 2.68377C7.41813 2.47299 7.8922 2.18114 8.15963 2.03116C8.42705 1.87713 8.83629 1.66229 9.0713 1.55285C9.30631 1.44341 9.70744 1.26505 9.96271 1.15966C10.218 1.05427 10.6839 0.884025 10.9959 0.782688C11.3079 0.681351 11.8266 0.531372 12.1507 0.450302C12.4749 0.373286 12.9935 0.263842 13.3055 0.211147C13.6175 0.154398 14.0835 0.0935957 14.3387 0.0692748Z" fill="#2A457A"/>
<path d="M12.7788 9.75739C12.8436 9.72497 12.9571 9.6804 13.0219 9.6642C13.0867 9.64799 14.0632 9.63583 15.1896 9.63988L15.1918 9.63989C17.2277 9.64799 17.2359 9.64802 17.4101 9.74118C17.5033 9.7898 17.6127 9.87894 17.6532 9.94377C17.6978 10.0046 17.7545 10.118 17.7869 10.195C17.8315 10.3084 17.8477 10.8311 17.8841 15.0775L18.0179 15.353C18.1029 15.5354 18.1921 15.6488 18.2812 15.7055C18.3501 15.7501 18.4595 15.7866 18.5243 15.7866C18.5851 15.7866 18.6824 15.7623 18.7472 15.7298C18.808 15.7015 18.9984 15.5232 19.1726 15.3368C19.3469 15.1504 19.6183 14.8222 19.7764 14.6115C19.9303 14.4008 20.1856 14.0281 20.3396 13.7809C20.4935 13.5378 20.8015 12.9786 21.0203 12.5451C21.2431 12.1115 21.543 11.4632 21.6929 11.1067C21.8428 10.7501 21.9968 10.4097 22.0414 10.349C22.0819 10.2841 22.1913 10.199 22.2804 10.1545C22.4344 10.0775 22.5235 10.0734 24.5373 10.0734C25.9312 10.0734 26.6889 10.0896 26.7983 10.118C26.8874 10.1423 27.0049 10.195 27.0576 10.2315C27.1103 10.2679 27.1791 10.3449 27.2075 10.4097C27.2399 10.4705 27.2642 10.584 27.2642 10.661C27.2642 10.7379 27.2156 10.9446 27.1589 11.1188C27.1022 11.289 26.9603 11.6131 26.8469 11.836C26.7294 12.0589 26.5065 12.4316 26.3526 12.6666C26.1945 12.8976 25.5705 13.7566 24.9628 14.571C24.355 15.3854 23.7958 16.1756 23.7188 16.3336C23.6216 16.52 23.577 16.6739 23.577 16.7793C23.577 16.8684 23.6135 17.0143 23.654 17.1034C23.6945 17.1926 23.7796 17.3303 23.8363 17.4073C23.8931 17.4843 24.3145 17.9057 24.7723 18.3393C25.2261 18.7728 25.765 19.3117 25.9676 19.5346C26.1743 19.7574 26.466 20.1018 26.6159 20.3044C26.7658 20.507 26.9563 20.7866 27.0333 20.9325C27.1143 21.0783 27.1994 21.2809 27.2197 21.3903C27.2521 21.5281 27.2521 21.6375 27.2156 21.7955C27.1913 21.909 27.1224 22.0589 27.0657 22.1237C27.009 22.1885 26.8996 22.2655 26.8266 22.2979C26.7253 22.3385 26.2837 22.3506 24.7602 22.3506C23.1921 22.3506 22.7788 22.3385 22.5722 22.2898C22.4344 22.2574 22.1994 22.1683 22.0454 22.0913C21.8955 22.0143 21.6726 21.8725 21.5511 21.7752C21.4295 21.678 20.9717 21.2039 20.5341 20.7299C20.1005 20.2517 19.6629 19.7898 19.5616 19.7047C19.4644 19.6196 19.3104 19.5143 19.2213 19.4738C19.1321 19.4292 18.9822 19.3927 18.885 19.3927C18.7918 19.3927 18.6662 19.4171 18.6013 19.4495C18.5405 19.4819 18.4514 19.5508 18.4028 19.6034C18.3542 19.6521 18.261 19.8141 18.1921 19.96C18.1232 20.1059 18.0422 20.353 18.0098 20.507C17.9773 20.665 17.9287 21.0175 17.9085 21.2971C17.872 21.6902 17.8436 21.8401 17.7707 21.9657C17.7099 22.0791 17.6208 22.1602 17.479 22.2291C17.2885 22.3263 17.2318 22.3303 16.4862 22.3425C16.0527 22.3506 15.4976 22.3385 15.2504 22.3101C15.0033 22.2858 14.6062 22.2209 14.359 22.1723C14.1118 22.1197 13.7391 22.0184 13.5284 21.9495C13.3177 21.8765 12.9165 21.7104 12.637 21.5767C12.3574 21.443 11.9765 21.2282 11.7861 21.1067C11.5956 20.9811 11.2877 20.7623 11.0973 20.6124C10.9068 20.4665 10.5503 20.1464 10.3071 19.8992C10.06 19.6561 9.6872 19.2428 9.48056 18.9876C9.26986 18.7323 8.92545 18.2744 8.7107 17.9746C8.50001 17.6747 8.14749 17.148 7.92869 16.8117C7.70989 16.4713 7.36143 15.896 7.15073 15.5354C6.94409 15.1707 6.61183 14.5751 6.41734 14.2063C6.2188 13.8376 5.8987 13.2015 5.69611 12.7882C5.49757 12.3749 5.20988 11.7671 5.05997 11.4308C4.90599 11.0986 4.76823 10.7501 4.75202 10.661C4.73311 10.5529 4.74257 10.4543 4.78039 10.3652C4.82091 10.2679 4.88979 10.2031 5.01945 10.1464C5.19773 10.0613 5.25851 10.0613 7.00486 10.0613C8.67424 10.0653 8.8201 10.0694 8.98623 10.1383C9.08753 10.1828 9.23339 10.2882 9.31038 10.3814C9.39952 10.4827 9.53728 10.742 9.65479 11.0297C9.76419 11.293 10.0235 11.8482 10.2302 12.2614C10.4368 12.6747 10.7002 13.1772 10.8136 13.3757C10.9311 13.5783 11.2188 14.0321 11.4538 14.3887C11.6929 14.7452 12.0049 15.1626 12.1507 15.3166C12.2966 15.4705 12.487 15.6407 12.5762 15.6974C12.6815 15.7623 12.799 15.8028 12.9125 15.8028C13.0665 15.8068 13.107 15.7866 13.2285 15.6569C13.3136 15.5597 13.3947 15.4057 13.4433 15.2517C13.4879 15.1099 13.5446 14.7979 13.5689 14.5508C13.5932 14.3076 13.6175 13.712 13.6135 13.2339C13.6135 12.7234 13.5892 12.1723 13.5567 11.8968C13.5203 11.6253 13.4595 11.3457 13.4109 11.2282C13.3623 11.1188 13.2772 10.9648 13.2204 10.896C13.1678 10.823 13.0462 10.7177 12.953 10.665C12.8558 10.6083 12.6694 10.5353 12.5357 10.4989C12.402 10.4665 12.2764 10.4219 12.2601 10.4057C12.2399 10.3895 12.2358 10.3409 12.248 10.2963C12.2601 10.2517 12.3574 10.1261 12.4627 10.0167C12.5721 9.91136 12.714 9.79386 12.7788 9.75739Z" fill="white"/>
</svg>
